<?xml version="1.0" standalone="no"?>
<!DOCTYPE svg PUBLIC "-//W3C//DTD SVG 20010904//EN"
 "http://www.w3.org/TR/2001/REC-SVG-20010904/DTD/svg10.dtd">
<svg version="1.0" xmlns="http://www.w3.org/2000/svg"
 width="512.000000pt" height="512.000000pt" viewBox="0 0 512.000000 512.000000"
 preserveAspectRatio="xMidYMid meet">
<metadata>
Created by potrace 1.14, written by Peter Selinger 2001-2017
</metadata>
<g transform="translate(0.000000,512.000000) scale(0.100000,-0.100000)"
fill="#000000" stroke="none">
<path d="M1212 5109 c-269 -53 -493 -288 -529 -554 -20 -154 12 -314 89 -441
35 -59 120 -151 181 -197 25 -19 36 -34 33 -45 -3 -9 -8 -69 -12 -132 -3 -63
-8 -131 -9 -150 -1 -19 -5 -82 -9 -140 -4 -58 -9 -127 -11 -155 -2 -27 -6 -90
-10 -140 -3 -49 -8 -115 -10 -145 -3 -30 -7 -95 -10 -145 -3 -49 -8 -117 -10
-150 -7 -89 -14 -179 -20 -280 -4 -49 -8 -115 -10 -145 -2 -30 -7 -93 -10
-140 -12 -198 -16 -224 -40 -252 -48 -57 -94 -146 -121 -233 -27 -90 -27 -92
-28 -392 -1 -262 -3 -303 -16 -304 -8 0 -22 -2 -30 -4 -8 -2 -27 -5 -42 -8
-97 -19 -196 -99 -240 -194 -25 -56 -32 -63 -56 -63 -85 0 -178 -55 -204 -120
-22 -54 -84 -347 -81 -380 6 -57 21 -93 54 -128 67 -72 -4 -67 975 -70 881 -2
881 -2 907 19 35 27 37 76 4 107 l-23 22 -866 0 -867 0 -19 25 c-22 27 -21 37
18 200 11 50 23 101 26 115 3 14 13 33 21 43 15 16 80 17 1098 17 871 0 1085
-3 1099 -13 12 -9 29 -59 51 -157 40 -171 41 -184 15 -210 -18 -18 -34 -20
-142 -20 -131 -1 -149 -6 -167 -51 -6 -17 -5 -35 4 -56 17 -41 45 -46 208 -42
115 4 126 6 165 32 95 62 119 151 83 297 -12 47 -24 100 -27 119 -26 161 -91
235 -218 248 -50 5 -52 7 -70 49 -50 122 -163 207 -290 218 l-41 4 -2 148 c-5
454 -6 458 -25 529 -20 74 -77 195 -104 222 -48 49 -50 56 -69 368 -2 33 -6
94 -10 135 -5 78 -11 157 -20 300 -6 87 -10 148 -20 280 -3 41 -8 112 -10 157
-3 45 -7 108 -9 140 -3 32 -8 96 -11 143 -3 47 -7 110 -10 140 -2 30 -7 100
-11 155 -3 55 -9 104 -11 109 -13 20 41 -7 477 -242 47 -25 106 -57 133 -71
34 -19 47 -32 47 -48 0 -35 40 -133 76 -189 67 -101 178 -183 297 -218 26 -8
89 -14 140 -14 152 0 277 55 382 169 28 30 57 55 65 55 8 1 38 5 65 8 52 6 84
9 250 26 55 6 127 13 160 17 120 12 109 19 112 -70 2 -100 30 -152 100 -188
26 -13 50 -27 53 -31 3 -3 4 -79 4 -168 l-1 -162 -251 -252 c-137 -138 -258
-266 -267 -285 -22 -45 -23 -117 0 -164 27 -57 146 -158 271 -227 161 -91 205
-103 267 -76 68 31 107 89 107 160 0 55 -15 82 -89 156 l-69 70 121 121 c122
123 154 145 194 134 12 -3 79 -62 149 -130 l126 -126 -38 -42 c-20 -23 -52
-57 -70 -76 -61 -62 -69 -147 -21 -220 47 -72 138 -93 216 -53 96 50 246 150
307 205 98 89 125 157 98 246 -11 39 -49 81 -270 302 l-257 257 1 163 c0 90 1
167 1 171 1 3 14 9 29 13 61 13 124 97 125 168 2 95 -132 112 -146 19 -7 -46
-14 -47 -273 -47 -193 -1 -247 2 -256 12 -7 9 -11 88 -12 236 l0 222 64 32
c178 88 218 91 340 30 95 -47 124 -79 134 -151 8 -51 35 -79 76 -79 62 0 86
50 66 137 -27 113 -86 176 -225 238 -90 40 -102 43 -186 43 -89 0 -91 -1 -226
-62 -78 -36 -145 -61 -157 -58 -12 2 -54 6 -94 10 -40 3 -84 8 -98 10 -14 2
-59 7 -100 10 -41 3 -86 8 -100 10 -14 2 -74 9 -133 15 l-109 11 -66 67 c-213
214 -534 214 -743 1 -54 -54 -129 -181 -129 -218 -1 -39 -15 -43 -61 -18 -24
13 -80 43 -124 67 -44 24 -102 55 -130 70 -93 51 -200 107 -243 129 l-43 22
65 70 c70 76 135 196 156 287 7 28 14 52 17 52 3 0 17 -9 31 -21 57 -44 348
-242 367 -249 40 -15 95 28 95 75 0 33 -23 52 -265 221 -125 86 -228 162 -229
168 -28 118 -41 159 -67 209 -82 162 -233 288 -409 341 -63 20 -243 28 -308
15z m291 -167 c151 -54 274 -180 323 -328 19 -61 25 -192 13 -267 -13 -74 -76
-185 -141 -251 -230 -229 -605 -190 -788 83 -193 286 -31 694 306 775 82 19
214 14 287 -12z m1449 -1057 c109 -28 194 -100 246 -205 23 -48 26 -68 27
-150 0 -82 -4 -103 -27 -152 -34 -74 -112 -152 -186 -186 -49 -23 -70 -27
-152 -27 -88 0 -101 3 -162 33 -141 69 -219 211 -205 369 4 35 10 69 14 76 4
7 8 14 8 17 3 24 47 91 85 129 96 96 223 130 352 96z m-1720 -82 c80 -11 207
-6 261 11 26 8 49 11 51 8 2 -4 5 -32 6 -62 1 -30 3 -71 4 -90 2 -19 6 -82 10
-140 4 -58 9 -132 11 -165 10 -131 15 -193 20 -270 7 -101 14 -203 20 -280 5
-65 12 -173 20 -300 2 -44 7 -105 9 -135 3 -30 8 -102 11 -160 4 -58 8 -117
11 -132 2 -16 3 -28 2 -28 -2 0 -36 13 -75 30 -40 16 -100 34 -134 40 -127 23
-298 2 -400 -50 -21 -11 -41 -20 -44 -20 -6 0 -4 44 10 230 7 94 15 212 20
290 3 41 7 102 10 135 5 66 11 152 20 290 3 50 8 119 11 155 12 170 14 201 19
285 4 50 8 110 10 135 2 25 7 88 10 140 4 52 9 98 12 103 2 4 12 3 23 -3 10
-5 42 -13 72 -17z m2308 -158 c14 -2 50 -6 80 -9 30 -3 105 -10 166 -17 l111
-12 -1 -79 c0 -43 -2 -78 -5 -79 -30 -4 -57 -7 -126 -13 -44 -4 -93 -9 -110
-11 -16 -3 -57 -7 -90 -10 -66 -5 -161 -16 -186 -20 -14 -3 -15 3 -7 43 10 54
8 153 -3 195 l-8 29 77 -7 c42 -3 88 -8 102 -10z m886 -788 l2 -148 -112 3
-111 3 -1 140 c0 77 0 142 2 145 1 3 51 5 111 5 l108 -1 1 -147z m290 -538
c134 -134 246 -254 248 -266 3 -16 -6 -32 -33 -56 -54 -49 -139 -110 -224
-162 -119 -72 -142 -57 -54 35 124 132 137 149 137 182 0 28 -20 52 -157 191
-87 87 -176 169 -198 182 -57 34 -121 40 -190 21 -52 -16 -68 -29 -231 -191
-217 -216 -212 -199 -79 -331 52 -52 95 -99 95 -104 0 -33 -57 -10 -205 86
-107 70 -166 124 -159 150 3 11 116 130 252 264 l247 245 154 -1 153 -1 244
-244z m-3238 -348 c180 -55 315 -196 357 -372 20 -85 22 -628 3 -630 -37 -3
-985 -4 -998 -1 -13 3 -15 40 -14 275 1 258 7 362 24 397 4 8 20 42 36 75 33
70 128 171 194 206 128 68 276 86 398 50z m602 -1165 c39 -13 79 -45 95 -76
l14 -28 -849 0 c-658 0 -850 3 -850 12 0 18 60 73 96 88 26 11 177 13 750 13
396 -1 730 -5 744 -9z"/>
<path d="M1229 4805 c-261 -84 -339 -415 -144 -608 93 -91 205 -121 349 -92
82 17 187 103 228 187 91 185 16 404 -168 494 -70 34 -191 43 -265 19z m196
-154 c53 -24 83 -55 106 -105 54 -119 -13 -264 -137 -295 -147 -37 -287 86
-268 236 9 75 80 158 150 176 43 11 111 5 149 -12z"/>
<path d="M2765 3742 c-116 -55 -168 -190 -116 -307 66 -150 260 -185 377 -68
107 107 76 299 -60 369 -49 26 -153 29 -201 6z m149 -153 c57 -45 18 -143 -55
-141 -72 2 -105 87 -54 137 30 31 73 32 109 4z"/>
<path d="M1245 1741 c-195 -89 -179 -374 25 -435 152 -46 305 71 299 228 -7
165 -178 274 -324 207z m150 -156 c32 -31 32 -75 2 -111 -36 -41 -117 -32
-132 15 -16 51 -14 64 15 92 37 37 81 39 115 4z"/>
</g>
</svg>
